<svg width="41" height="41" viewBox="0 0 41 41" fill="none" xmlns="http://www.w3.org/2000/svg">
<rect width="41" height="41" rx="20.5" fill="#B8B4B4"/>
<path d="M18.5762 26.99C20.4275 26.99 22.1561 26.3935 23.5613 25.3993L28.8476 30.6355C29.0929 30.8785 29.4164 31 29.7509 31C30.4758 31 31 30.4477 31 29.7407C31 29.4093 30.8885 29.0999 30.6431 28.8569L25.3903 23.6428C26.4944 22.2067 27.1524 20.4282 27.1524 18.495C27.1524 13.8222 23.2937 10 18.5762 10C13.8476 10 10 13.8222 10 18.495C10 23.1678 13.8476 26.99 18.5762 26.99ZM18.5762 25.1562C14.8848 25.1562 11.8513 22.1405 11.8513 18.495C11.8513 14.8496 14.8848 11.8338 18.5762 11.8338C22.2565 11.8338 25.3011 14.8496 25.3011 18.495C25.3011 22.1405 22.2565 25.1562 18.5762 25.1562Z" fill="#F2F2F2"/>
</svg>
